<svg xmlns="http://www.w3.org/2000/svg" width="192" height="192" viewBox="0 0 192 192">
  <rect width="192" height="192" rx="40" fill="#7b61ff"/>
  <path d="M134 124.4v13a8.67 8.67 0 01-9.45 8.67 85.7 85.7 0 01-37.37-13.28 84.42 84.42 0 01-26-26 85.7 85.7 0 01-13.28-37.6A8.67 8.67 0 0157 60.67h13a8.67 8.67 0 018.67 7.45 55.6 55.6 0 003.03 12.17 8.67 8.67 0 01-1.95 9.15l-5.5 5.5a69.32 69.32 0 0027.54 27.54l5.5-5.5a8.67 8.67 0 019.15-1.95 55.6 55.6 0 0012.17 3.03 8.67 8.67 0 017.39 8.84z" fill="white"/>
</svg>
